
        <svg xmlns="http://www.w3.org/2000/svg" xmlns:xlink="http://www.w3.org/1999/xlink" version="1.1" width="3169.0140845070423" 
        height="2252.0520234045507" viewBox="0 0 3169.0140845070423 2252.0520234045507">
			
			<g transform="scale(8.450704225352112) translate(10, 10)">
				<defs id="SvgjsDefs1130"></defs><g id="SvgjsG1131" featureKey="nRdZyp-0" transform="matrix(1.7754586619604298,0,0,1.7754586619604298,90.1296830648075,-9.413082309587368)" fill="#01aac1"><g xmlns="http://www.w3.org/2000/svg"><path d="M17.147,81.16c-1.638,1.276-1.932,3.64-0.655,5.279c0.741,0.951,1.849,1.448,2.968,1.448c0.808,0,1.623-0.259,2.311-0.795   c3.135-2.441,7.417-3.973,12.144-5.309c-1.461-2.079-2.97-4.253-4.414-6.532C24.976,76.657,20.664,78.423,17.147,81.16z"></path><path d="M54.558,7.611c-0.802-1.916-3.005-2.819-4.921-2.016c-1.916,0.801-2.818,3.004-2.017,4.921   c1.93,4.61,4.931,9.113,7.833,13.469c3.933,5.901,7.733,11.61,9.321,17.711l-20.609-7.718c2.632-1.685,5.615-2.96,8.805-4.03   l-5.1-7.304c-8.646,3.253-16.546,8.412-20.531,19.049c-5.915,15.795,2.644,27.965,10.196,38.705   c2.95,4.194,5.736,8.155,7.461,12.027c0.713,1.602,2.283,2.552,3.929,2.552c0.584,0,1.179-0.119,1.746-0.373   c2.169-0.966,3.145-3.507,2.179-5.674c-2.066-4.64-5.226-9.132-8.283-13.479c-3.951-5.617-7.775-11.06-9.542-16.834l20.441,7.655   c-2.74,1.821-5.86,3.157-9.197,4.268l4.468,6.398c8.53-3.158,16.388-8.199,20.376-18.851c5.796-15.471-2.278-27.586-9.399-38.273   C58.884,15.568,56.21,11.557,54.558,7.611z M59.288,63.114L34.07,53.669c-0.171-2.229,0.015-4.525,0.662-6.913l28.487,10.669   C62.153,59.653,60.828,61.525,59.288,63.114z M64.733,53.402L36.248,42.734c1.071-2.204,2.414-4.062,3.99-5.638l25.286,9.469   C65.623,48.771,65.39,51.041,64.733,53.402z"></path><path d="M85.009,11.782c-1.581-1.769-4.298-1.923-6.069-0.342c-3.258,2.91-8.129,4.635-13.55,6.143   c1.59,2.385,3.26,4.896,4.831,7.546c5.39-1.642,10.5-3.753,14.446-7.278C86.437,16.27,86.591,13.553,85.009,11.782z"></path></g></g><g id="SvgjsG1132" featureKey="Q4qmbg-0" transform="matrix(4.292089071102414,0,0,4.292089071102414,3.1114785164920757,159.44925346043786)" fill="#595959"><path d="M9.56 9.66 l0 2.14 l-5.38 6.06 l5.76 0 l0 2.14 l-9.5 0 l0 -2.14 l5.38 -6.06 l-4.98 0 l0 -2.14 l8.72 0 z M15.654229166666667 9.38 c0.97334 0 1.84 0.22664 2.6 0.67998 s1.3567 1.11 1.79 1.97 s0.65 1.85 0.65 2.97 c0 0.10666 -0.0066602 0.28 -0.02 0.52 l-7.46 0 c0.02666 0.82666 0.24332 1.47 0.64998 1.93 s1.03 0.69 1.87 0.69 c0.52 0 0.99666 -0.13 1.43 -0.39 s0.71 -0.57666 0.83 -0.95 l2.5 0 c-0.73334 2.32 -2.3466 3.48 -4.84 3.48 c-0.94666 -0.01334 -1.8233 -0.22 -2.63 -0.62 s-1.45 -1.0233 -1.93 -1.87 s-0.72 -1.83 -0.72 -2.95 c0 -1.0533 0.24334 -2.0134 0.73 -2.88 s1.1333 -1.5133 1.94 -1.94 s1.6767 -0.64 2.61 -0.64 z M17.834229166666667 13.719999999999999 c-0.13334 -0.77334 -0.38 -1.3333 -0.74 -1.68 s-0.87334 -0.52 -1.54 -0.52 c-0.69334 0 -1.24 0.19666 -1.64 0.59 s-0.63334 0.93 -0.7 1.61 l4.62 0 z M24.60845833333333 5.720000000000001 l0.000019531 5.2 l0.04 0 c0.30666 -0.46666 0.74332 -0.84 1.31 -1.12 s1.2167 -0.42 1.95 -0.42 c1.2667 0 2.2966 0.50666 3.09 1.52 s1.19 2.32 1.19 3.92 c0 1.6133 -0.39334 2.9266 -1.18 3.94 s-1.8267 1.52 -3.12 1.52 c-1.68 0 -2.8066 -0.53334 -3.38 -1.6 l-0.04 0 l0 1.32 l-2.7 0 l0 -14.28 l2.84 0 z M24.50845833333333 14.84 c0 1 0.21998 1.8 0.65998 2.4 s1.0267 0.9 1.76 0.9 c0.72 0 1.3033 -0.29334 1.75 -0.88 s0.67 -1.3933 0.67 -2.42 c0 -1.0133 -0.21666 -1.82 -0.65 -2.42 s-1.03 -0.9 -1.79 -0.9 c-0.74666 0 -1.3333 0.30666 -1.76 0.92 s-0.64 1.4133 -0.64 2.4 z M39.44268749999999 9.38 c0.24 0 0.44668 0.03334 0.62002 0.1 l0 2.64 c-0.30666 -0.06666 -0.64666 -0.1 -1.02 -0.1 c-1.8667 0 -2.8 1.1067 -2.8 3.32 l0 4.66 l-2.84 0 l0 -10.34 l2.7 0 l0 1.92 l0.04 0 c0.28 -0.66666 0.72334 -1.2 1.33 -1.6 s1.2633 -0.6 1.97 -0.6 z M45.35691666666666 9.38 c3.0134 0.01334 4.52 0.9933 4.52 2.94 l0 5.48 c0 1.0133 0.12 1.7467 0.36 2.2 l-2.88 0 c-0.10666 -0.32 -0.17332 -0.65334 -0.19998 -1 c-0.84 0.85334 -2 1.28 -3.48 1.28 c-1.08 0 -1.9367 -0.27334 -2.57 -0.82 s-0.95 -1.3067 -0.95 -2.28 c0 -0.94666 0.3 -1.68 0.9 -2.2 c0.61334 -0.54666 1.7267 -0.89332 3.34 -1.04 c1.1467 -0.12 1.8733 -0.27 2.18 -0.45 s0.46 -0.45666 0.46 -0.83 c0 -0.46666 -0.14 -0.81332 -0.42 -1.04 s-0.74666 -0.34 -1.4 -0.34 c-0.6 0 -1.0533 0.12334 -1.36 0.37 s-0.48666 0.64332 -0.54 1.19 l-2.84 0 c0.06666 -1.1333 0.53332 -1.9933 1.4 -2.58 s2.0266 -0.88 3.48 -0.88 z M42.99691666666666 17.06 c0 0.88 0.58 1.32 1.74 1.32 c1.52 -0.01334 2.2866 -0.79334 2.3 -2.34 l0 -1.1 c-0.22666 0.22666 -0.8 0.39332 -1.72 0.49998 c-0.8 0.09334 -1.3867 0.25668 -1.76 0.49002 s-0.56 0.61 -0.56 1.13 z M56.21114583333332 5.720000000000001 l3.34 9.82 l0.04 0 l3.16 -9.82 l4.42 0 l0 14.28 l-2.94 0 l0 -10.12 l-0.04 0 l-3.5 10.12 l-2.42 0 l-3.5 -10.02 l-0.04 0 l0 10.02 l-2.94 0 l0 -14.28 l4.42 0 z M75.465375 5.720000000000001 c2.0266 0 3.62 0.62666 4.78 1.88 s1.74 2.98 1.74 5.18 c0 2.28 -0.58334 4.0534 -1.75 5.32 s-2.73 1.9 -4.69 1.9 l-6.2 0 l0 -14.28 l6.12 0 z M75.26537499999999 17.36 c1.1333 0 2.0134 -0.37334 2.64 -1.12 s0.94 -1.8067 0.94 -3.18 c0 -1.5733 -0.33666 -2.75 -1.01 -3.53 s-1.71 -1.17 -3.11 -1.17 l-2.24 0 l0 9 l2.78 0 z"></path></g>
			</g>
		</svg>
	